<svg id="eec80c6b-bc2f-4da8-9216-901babaf32ec" data-name="ffaf9ab0-83d7-47a7-a86d-2684fbb9557d" xmlns="http://www.w3.org/2000/svg" viewBox="0 0 60 60"><defs><style>.a6e37a0c-03d8-4727-8452-6530ef7cfb72{fill:#fff;}.adc1dc93-7fa9-418d-9a7e-e485d427f314{fill:none;}</style></defs><path class="a6e37a0c-03d8-4727-8452-6530ef7cfb72" d="M17.29,4.17H11.06v16.4H6.29V4.17H0V0H17.29Z" transform="translate(0 0)"/><path class="a6e37a0c-03d8-4727-8452-6530ef7cfb72" d="M19.6,20.57V0h9.28a6.33,6.33,0,0,1,2.67.65A6.91,6.91,0,0,1,33.67,2.2,7.65,7.65,0,0,1,35,4.46,6.75,6.75,0,0,1,35.54,7a7.35,7.35,0,0,1-.41,2.41A6.68,6.68,0,0,1,34,11.47a6.18,6.18,0,0,1-1.79,1.47l4.54,7.66h-5.2l-4-6.64H24.33V20.6ZM24.36,9.8H28.7a1.61,1.61,0,0,0,1-.37,2.52,2.52,0,0,0,.77-1A3.37,3.37,0,0,0,30.8,7a3.4,3.4,0,0,0-.33-1.47,2.94,2.94,0,0,0-.85-1,1.89,1.89,0,0,0-1.05-.35H24.36Z" transform="translate(0 0)"/><path class="a6e37a0c-03d8-4727-8452-6530ef7cfb72" d="M16.51,24.87l4.81,15,4.78-15h5L23.66,45.44H19L11.47,24.87Z" transform="translate(0 0)"/><path class="a6e37a0c-03d8-4727-8452-6530ef7cfb72" d="M33.92,45.44V24.87h4.74v16.4h9.87V45.4Z" transform="translate(0 0)"/><polygon class="adc1dc93-7fa9-418d-9a7e-e485d427f314" points="3.09 24.77 3.09 56.91 56.91 56.91 56.91 3.09 46.97 3.09 46.97 24.77 3.09 24.77"/><polygon class="a6e37a0c-03d8-4727-8452-6530ef7cfb72" points="60 0 46.97 0 46.97 3.09 56.91 3.09 56.91 20.63 60 20.63 60 0"/><polygon class="a6e37a0c-03d8-4727-8452-6530ef7cfb72" points="3.09 56.91 3.09 24.77 0 24.77 0 60 48.55 60 48.55 56.91 3.09 56.91"/></svg>