<svg id="a429c0f5-96a5-4fe0-8843-48da9a5d1025" data-name="logo-dark" xmlns="http://www.w3.org/2000/svg" viewBox="0 0 83.81 75.81"><defs><style>.a6843567-4b98-47ae-a4e6-d0110ca55ac3{fill:#171c1d;}.a174f188-995d-4387-a7f2-5158df487f41{fill:#16c7a9;}</style></defs><path class="a6843567-4b98-47ae-a4e6-d0110ca55ac3" d="M47.05,17.55H39V38.77H32.82V17.55H24.69V12.16H47.05Z" transform="translate(-8.43 -12.16)"/><path class="a6843567-4b98-47ae-a4e6-d0110ca55ac3" d="M50.05,38.77V12.16h12A8,8,0,0,1,65.5,13,9,9,0,0,1,68.25,15,9.78,9.78,0,0,1,70,17.92a8.48,8.48,0,0,1,.66,3.26,9.46,9.46,0,0,1-.52,3.12A8.79,8.79,0,0,1,68.67,27a8.3,8.3,0,0,1-2.31,1.9l5.87,9.9H65.5l-5.14-8.58h-4.2v8.58ZM56.2,24.83h5.62a2.1,2.1,0,0,0,1.33-.47,3.37,3.37,0,0,0,1-1.3,4.61,4.61,0,0,0,.38-1.9,4.16,4.16,0,0,0-.43-1.9A3.68,3.68,0,0,0,63,18a2.37,2.37,0,0,0-1.35-.45H56.2Z" transform="translate(-8.43 -12.16)"/><path class="a6843567-4b98-47ae-a4e6-d0110ca55ac3" d="M31.21,44.33l6.23,19.41,6.18-19.41H50.1L40.46,70.94h-6L24.69,44.33Z" transform="translate(-8.43 -12.16)"/><path class="a6843567-4b98-47ae-a4e6-d0110ca55ac3" d="M53.74,70.94V44.33h6.13V65.54H72.64v5.34Z" transform="translate(-8.43 -12.16)"/><rect class="a174f188-995d-4387-a7f2-5158df487f41" y="72.68" width="64.21" height="3.13"/><rect class="a174f188-995d-4387-a7f2-5158df487f41" y="32.15" width="3.13" height="43.2"/><rect class="a174f188-995d-4387-a7f2-5158df487f41" x="80.67" width="3.13" height="15.09"/><rect class="a174f188-995d-4387-a7f2-5158df487f41" x="68.72" width="15.09" height="3.13"/></svg>