<svg id="bf45c2d3-dcfb-4538-b899-8c2ac4897a69" data-name="ffaf9ab0-83d7-47a7-a86d-2684fbb9557d" xmlns="http://www.w3.org/2000/svg" viewBox="0 0 60 60"><defs><style>.af8620cf-cde6-48bb-b9d1-c9ff43a0e623{fill:#fff;}.aaf87f2b-0fd4-4bf5-bf17-aa339e50a158{fill:none;}.b782a765-85f1-43ca-90e3-17bb243a4fcb{fill:#16c7a9;}</style></defs><path class="af8620cf-cde6-48bb-b9d1-c9ff43a0e623" d="M17.29,4.17H11.06v16.4H6.29V4.17H0V0H17.29Z" transform="translate(0 0)"/><path class="af8620cf-cde6-48bb-b9d1-c9ff43a0e623" d="M19.6,20.57V0h9.28a6.33,6.33,0,0,1,2.67.65A6.91,6.91,0,0,1,33.67,2.2,7.65,7.65,0,0,1,35,4.46,6.75,6.75,0,0,1,35.54,7a7.35,7.35,0,0,1-.41,2.41A6.68,6.68,0,0,1,34,11.47a6.18,6.18,0,0,1-1.79,1.47l4.54,7.66h-5.2l-4-6.64H24.33V20.6ZM24.36,9.8H28.7a1.61,1.61,0,0,0,1-.37,2.52,2.52,0,0,0,.77-1A3.37,3.37,0,0,0,30.8,7a3.4,3.4,0,0,0-.33-1.47,2.94,2.94,0,0,0-.85-1,1.89,1.89,0,0,0-1.05-.35H24.36Z" transform="translate(0 0)"/><path class="af8620cf-cde6-48bb-b9d1-c9ff43a0e623" d="M16.51,24.87l4.81,15,4.78-15h5L23.66,45.44H19L11.47,24.87Z" transform="translate(0 0)"/><path class="af8620cf-cde6-48bb-b9d1-c9ff43a0e623" d="M33.92,45.44V24.87h4.74v16.4h9.87V45.4Z" transform="translate(0 0)"/><polygon class="aaf87f2b-0fd4-4bf5-bf17-aa339e50a158" points="3.09 24.77 3.09 56.91 56.91 56.91 56.91 3.09 46.97 3.09 46.97 24.77 3.09 24.77"/><polygon class="b782a765-85f1-43ca-90e3-17bb243a4fcb" points="60 0 46.97 0 46.97 3.09 56.91 3.09 56.91 20.63 60 20.63 60 0"/><polygon class="b782a765-85f1-43ca-90e3-17bb243a4fcb" points="3.09 56.91 3.09 24.77 0 24.77 0 60 48.55 60 48.55 56.91 3.09 56.91"/></svg>